<svg xmlns="http://www.w3.org/2000/svg" width="436.726" height="182.067" viewBox="0 0 436.726 182.067">
  <g id="qn_new_logo_white" transform="translate(-65.181 -19.63)">
    <g id="Group_5" data-name="Group 5">
      <g id="Group_3" data-name="Group 3">
        <g id="Group_1" data-name="Group 1">
          <path id="Path_1" data-name="Path 1" d="M258.6,127.991l5.694,5.182-3.868,4.236-4.941-4.236h-23a6.212,6.212,0,0,1-6.245-6.244V107.072a6.212,6.212,0,0,1,6.245-6.245h19.812a6.1,6.1,0,0,1,4.447,1.819,5.987,5.987,0,0,1,1.843,4.426Zm-26.116-.748h19.812a.278.278,0,0,0,.315-.314V107.072a.279.279,0,0,0-.315-.315H232.482a.279.279,0,0,0-.315.315v19.857A.278.278,0,0,0,232.482,127.243Z" fill="#fff"/>
          <path id="Path_2" data-name="Path 2" d="M289.812,126.929v-26.1h5.975v26.1a5.986,5.986,0,0,1-1.842,4.425,6.048,6.048,0,0,1-4.4,1.819H269.685a6.212,6.212,0,0,1-6.245-6.244v-26.1h5.93v26.1a.278.278,0,0,0,.315.314h19.857C289.722,127.243,289.812,127.139,289.812,126.929Z" fill="#fff"/>
          <path id="Path_3" data-name="Path 3" d="M306.888,100.827H326.7a6.1,6.1,0,0,1,4.448,1.819,5.989,5.989,0,0,1,1.841,4.426v26.1h-5.974V122.3H306.573v10.872h-5.93v-26.1a6.212,6.212,0,0,1,6.245-6.245Zm-.315,15.544h20.442v-9.3a.279.279,0,0,0-.315-.315H306.888a.279.279,0,0,0-.315.315Z" fill="#fff"/>
          <path id="Path_4" data-name="Path 4" d="M374.138,100.827h32.346v5.93H393.321v26.416h-5.976V106.757H374.138Z" fill="#fff"/>
          <path id="Path_5" data-name="Path 5" d="M437.712,126.929v-26.1h5.974v26.1a5.982,5.982,0,0,1-1.842,4.425,6.044,6.044,0,0,1-4.4,1.819H417.585a6.211,6.211,0,0,1-6.245-6.244v-26.1h5.93v26.1a.278.278,0,0,0,.315.314h19.857C437.621,127.243,437.712,127.139,437.712,126.929Z" fill="#fff"/>
          <path id="Path_6" data-name="Path 6" d="M485.155,132.735h-5.748V114L469.3,131.791a2.486,2.486,0,0,1-1.042,1.032,3.058,3.058,0,0,1-1.437.35,2.886,2.886,0,0,1-1.393-.35,2.517,2.517,0,0,1-1.02-1.032L454.247,114v18.734h-5.7V103.713a2.864,2.864,0,0,1,2.106-2.786,3.025,3.025,0,0,1,.921-.077,3.074,3.074,0,0,1,.889.2,2.7,2.7,0,0,1,.778.46,2.727,2.727,0,0,1,.593.713l12.986,22.573L479.8,102.221a2.787,2.787,0,0,1,1.393-1.184,2.968,2.968,0,0,1,1.854-.11,2.864,2.864,0,0,1,1.514,1.031,2.8,2.8,0,0,1,.592,1.755Z" fill="#fff"/>
          <path id="Path_7" data-name="Path 7" d="M369.281,130.3a2.8,2.8,0,0,1-.231,1.14,2.93,2.93,0,0,1-.614.911,2.8,2.8,0,0,1-.91.6,2.884,2.884,0,0,1-1.119.219,3.06,3.06,0,0,1-1.064-.2,2.5,2.5,0,0,1-.954-.636L343.55,110.579v22.156h-5.7V103.713a2.729,2.729,0,0,1,.494-1.59,3.069,3.069,0,0,1,1.261-1.065,2.894,2.894,0,0,1,1.667-.164,2.713,2.713,0,0,1,1.47.8l20.839,21.74V101.278h5.7Z" fill="#fff"/>
        </g>
        <g id="Group_2" data-name="Group 2">
          <path id="Path_8" data-name="Path 8" d="M153.355,117.336h0Z" fill="#fff"/>
          <path id="Path_9" data-name="Path 9" d="M154.809,60.73l0-26.208a7.644,7.644,0,1,0-3.048-.006V60.735c.53-.014,1.061-.023,1.594-.023Q154.084,60.712,154.809,60.73Z" fill="#fff"/>
          <path id="Path_10" data-name="Path 10" d="M102.757,142.826q-.77-1.527-1.449-3.1L76.092,151.485a6.349,6.349,0,1,0,1.446,3.1Z" fill="#fff"/>
          <path id="Path_11" data-name="Path 11" d="M205.029,180.583a10.548,10.548,0,0,0-2.916.417l-13.52-19.309h0a56.362,56.362,0,1,0-6.511,4.485l.877-.592,13.546,19.346a10.548,10.548,0,1,0,8.524-4.347Zm-51.672-18.076a45.168,45.168,0,1,1,28.632-10.246h0l-8.857-12.65a6.122,6.122,0,0,0-5.721-8.335c-.037,0-.074.005-.111.006a6.132,6.132,0,0,0,.111,12.263c.038,0,.074-.005.112-.005l8.793,12.557h0l-1.93,1.214A44.954,44.954,0,0,1,153.357,162.507Z" fill="#fff"/>
        </g>
      </g>
      <g id="Group_4" data-name="Group 4">
        <path id="Path_12" data-name="Path 12" d="M230.056,161.406l-1.488,4.1h-1.833l4.868-12.866h2.118l4.906,12.866h-1.889l-1.547-4.1Zm4.754-1.336-1.489-3.856c-.306-.821-.5-1.489-.706-2.139h-.038c-.192.669-.4,1.356-.669,2.1l-1.47,3.894Z" fill="#fff"/>
        <path id="Path_13" data-name="Path 13" d="M256.545,165.033a9.453,9.453,0,0,1-3.913.707c-4.009,0-7.024-2.387-7.024-6.568,0-3.683,2.787-6.757,7.444-6.757a8.254,8.254,0,0,1,3.531.649l-.438,1.393a7.03,7.03,0,0,0-3.017-.63c-3.569,0-5.688,2.139-5.688,5.327,0,2.881,1.929,5.134,5.555,5.134a7.923,7.923,0,0,0,3.188-.61Z" fill="#fff"/>
        <path id="Path_14" data-name="Path 14" d="M274.578,165.033a9.456,9.456,0,0,1-3.913.707c-4.009,0-7.025-2.387-7.025-6.568,0-3.683,2.787-6.757,7.444-6.757a8.26,8.26,0,0,1,3.532.649l-.439,1.393a7.021,7.021,0,0,0-3.016-.63c-3.57,0-5.689,2.139-5.689,5.327,0,2.881,1.929,5.134,5.555,5.134a7.919,7.919,0,0,0,3.188-.61Z" fill="#fff"/>
        <path id="Path_15" data-name="Path 15" d="M290.244,159.5h-5.575v4.6h6.2v1.412h-7.941V152.644h7.636v1.413h-5.9v4.027h5.575Z" fill="#fff"/>
        <path id="Path_16" data-name="Path 16" d="M299.1,163.372a6.371,6.371,0,0,0,3.34.936c1.813,0,2.882-.879,2.882-2.195,0-1.184-.706-1.89-2.672-2.5-2.462-.744-3.742-1.832-3.742-3.665,0-2.024,1.776-3.532,4.429-3.532a6.854,6.854,0,0,1,3.188.668l-.5,1.394a5.677,5.677,0,0,0-2.729-.668c-1.928,0-2.634,1.088-2.634,1.966,0,1.164.82,1.775,2.787,2.4,2.386.782,3.626,1.775,3.626,3.817,0,1.891-1.412,3.743-4.791,3.743a7.313,7.313,0,0,1-3.665-.936Z" fill="#fff"/>
        <path id="Path_17" data-name="Path 17" d="M315.449,163.372a6.375,6.375,0,0,0,3.341.936c1.812,0,2.882-.879,2.882-2.195,0-1.184-.706-1.89-2.672-2.5-2.463-.744-3.742-1.832-3.742-3.665,0-2.024,1.775-3.532,4.428-3.532a6.856,6.856,0,0,1,3.189.668l-.5,1.394a5.682,5.682,0,0,0-2.73-.668c-1.927,0-2.633,1.088-2.633,1.966,0,1.164.82,1.775,2.787,2.4,2.385.782,3.626,1.775,3.626,3.817,0,1.891-1.412,3.743-4.791,3.743a7.31,7.31,0,0,1-3.665-.936Z" fill="#fff"/>
        <path id="Path_18" data-name="Path 18" d="M344.245,152.644v7.292c0,3.055,1.432,4.41,3.417,4.41,2.176,0,3.589-1.394,3.589-4.41v-7.292h1.737v7.216c0,4.161-2.31,5.88-5.4,5.88-2.863,0-5.078-1.585-5.078-5.842v-7.254Z" fill="#fff"/>
        <path id="Path_19" data-name="Path 19" d="M362.182,165.51V152.644h1.966l4.715,6.662a33.262,33.262,0,0,1,2.5,4.085l.058-.019a46.882,46.882,0,0,1-.191-5.078v-5.65h1.642V165.51H371.1l-4.639-6.624a47.889,47.889,0,0,1-2.691-4.295l-.058.02c.1,1.6.114,3.13.114,5.058v5.841Z" fill="#fff"/>
        <path id="Path_20" data-name="Path 20" d="M382.064,152.644H383.8v11.415h6.128v1.451h-7.866Z" fill="#fff"/>
        <path id="Path_21" data-name="Path 21" d="M399.735,152.644V165.51H398V152.644Z" fill="#fff"/>
        <path id="Path_22" data-name="Path 22" d="M420.806,159.822c-.1-1.814-.229-4.085-.229-5.707h-.038c-.5,1.507-1.088,3.149-1.813,5l-2.5,6.318h-1.374l-2.291-6.242c-.668-1.871-1.2-3.551-1.6-5.077h-.038c-.057,1.622-.152,3.875-.286,5.84l-.382,5.555h-1.661l.935-12.866h2.31l2.4,6.338c.573,1.546,1.031,3.015,1.394,4.314h.057c.363-1.261.859-2.73,1.49-4.314l2.576-6.338h2.271l.822,12.866h-1.718Z" fill="#fff"/>
        <path id="Path_23" data-name="Path 23" d="M433.416,152.644V165.51h-1.737V152.644Z" fill="#fff"/>
        <path id="Path_24" data-name="Path 24" d="M445.382,154.075h-4.429v-1.431h10.632v1.431h-4.467V165.51h-1.736Z" fill="#fff"/>
        <path id="Path_25" data-name="Path 25" d="M466.412,159.5h-5.574v4.6h6.2v1.412H459.1V152.644h7.635v1.413h-5.9v4.027h5.574Z" fill="#fff"/>
        <path id="Path_26" data-name="Path 26" d="M475.454,152.816a28.176,28.176,0,0,1,4.047-.286c2.729,0,4.677.649,5.956,1.833a5.671,5.671,0,0,1,1.852,4.389,6.7,6.7,0,0,1-1.966,4.868c-1.337,1.279-3.571,2.024-6.414,2.024-1.375,0-2.5-.058-3.475-.153Zm1.737,11.358a15.782,15.782,0,0,0,2.043.076c4.2.019,6.242-2.233,6.242-5.421.019-2.959-1.928-4.924-5.917-4.924a13.067,13.067,0,0,0-2.368.19Z" fill="#fff"/>
      </g>
    </g>
    <g id="Group_6" data-name="Group 6">
      <path id="Path_27" data-name="Path 27" d="M496.887,95.936h.439a.3.3,0,0,0,.051.007,4.4,4.4,0,0,1,.715.093,4.682,4.682,0,0,1,2.1,1.024,4.735,4.735,0,0,1,1.7,3.289l.015.161v.455c0,.014-.006.029-.007.043a4.412,4.412,0,0,1-.143.928,4.756,4.756,0,0,1-1.924,2.753,4.7,4.7,0,0,1-2.394.839,4.78,4.78,0,0,1-.887-.021,4.8,4.8,0,0,1-.847-9.364,4.567,4.567,0,0,1,.928-.184Zm-3.607,4.8a3.826,3.826,0,1,0,3.824-3.826A3.827,3.827,0,0,0,493.28,100.737Z" fill="#fff"/>
      <path id="Path_28" data-name="Path 28" d="M495,98.114h.039c.68,0,1.36,0,2.039,0a3.015,3.015,0,0,1,1,.153,1.216,1.216,0,0,1,.587.41,1.141,1.141,0,0,1,.206.522,1.764,1.764,0,0,1-.038.768,1.127,1.127,0,0,1-.6.7c-.091.046-.187.081-.281.122l.07.024a1.083,1.083,0,0,1,.5.373,2.783,2.783,0,0,1,.3.5l.7,1.409c.006.011.011.023.018.039l-.043,0H498.2a.056.056,0,0,1-.06-.039q-.312-.636-.627-1.272a1.34,1.34,0,0,0-.287-.4.68.68,0,0,0-.427-.176c-.164-.008-.329,0-.5,0v1.892H495Zm1.3.94v1.289c.216,0,.428,0,.64,0a1.1,1.1,0,0,0,.213-.028.5.5,0,0,0,.4-.325.88.88,0,0,0,.04-.388.9.9,0,0,0-.039-.193.491.491,0,0,0-.43-.328A6.484,6.484,0,0,0,496.3,99.054Z" fill="#fff"/>
    </g>
  </g>
</svg>
